<?xml version="1.0" encoding="UTF-8" standalone="no"?>
<!DOCTYPE svg PUBLIC "-//W3C//DTD SVG 1.1//EN" "http://www.w3.org/Graphics/SVG/1.1/DTD/svg11.dtd">
<svg width="100%" height="100%" viewBox="0 0 580 50" version="1.1" xmlns="http://www.w3.org/2000/svg" xmlns:xlink="http://www.w3.org/1999/xlink" xml:space="preserve" xmlns:serif="http://www.serif.com/" style="fill-rule:evenodd;clip-rule:evenodd;stroke-linejoin:round;stroke-miterlimit:2;">
    <g transform="matrix(1,0,0.140541,1,-15.6274,-15)">
        <path d="M298.234,61.26C302.417,61.26 305.683,60.098 308.046,57.807C310.392,55.532 311.927,52.404 312.63,48.415C312.63,48.415 315.533,31.951 315.533,31.951C315.565,31.77 315.495,31.585 315.351,31.471C314.214,30.575 312.664,29.823 310.695,29.226C308.75,28.636 306.713,28.34 304.582,28.34C299.941,28.34 296.203,29.464 293.359,31.686C290.501,33.919 288.696,37.114 287.961,41.281C287.303,45.012 287.877,47.897 289.616,49.947C291.355,51.997 294.094,53.052 297.857,53.052C299.618,53.052 301.163,52.808 302.494,52.326C303.399,51.999 304.252,51.554 305.053,50.99C304.625,52.582 303.986,53.765 303.114,54.527C302.02,55.482 300.467,55.94 298.468,55.94C295.756,55.94 293.627,55.522 292.085,54.66C292.083,54.659 292.082,54.658 292.081,54.658C291.815,54.512 291.581,54.452 291.386,54.452C291.092,54.452 290.711,54.635 290.33,55.125L288.523,57.478C288.249,57.826 288.174,58.158 288.23,58.452C288.283,58.739 288.47,59.023 288.843,59.259C289.709,59.859 291.026,60.354 292.801,60.722C294.532,61.08 296.343,61.26 298.234,61.26ZM430.97,53.82C433.223,53.82 435.447,53.518 437.643,52.914C439.853,52.306 441.662,51.539 443.073,50.619C443.189,50.543 443.268,50.423 443.292,50.287L448.311,21.823C448.451,21.028 448.32,20.45 448.01,20.074C447.7,19.698 447.144,19.46 446.308,19.46C446.308,19.46 443.908,19.46 443.908,19.46C443.124,19.46 442.531,19.658 442.116,20.011C441.701,20.364 441.41,20.904 441.278,21.649C441.278,21.649 439.793,30.073 439.793,30.073C438.394,28.937 436.21,28.34 433.222,28.34C430.768,28.34 428.543,28.873 426.549,29.935C424.552,30.997 422.904,32.482 421.605,34.391C420.314,36.287 419.448,38.471 419.012,40.945C418.256,45.235 418.921,48.444 420.922,50.589C422.907,52.717 426.248,53.82 430.97,53.82ZM329.354,53.82C331.381,53.82 333.206,53.622 334.829,53.23C336.46,52.836 338.021,52.228 339.514,51.406C339.519,51.403 339.524,51.4 339.529,51.397C340.012,51.109 340.248,50.767 340.307,50.431C340.348,50.198 340.33,49.941 340.239,49.662L339.451,47.596C339.296,47.048 338.958,46.82 338.524,46.82C338.345,46.82 338.076,46.889 337.731,47.068C335.584,48.183 333.287,48.74 330.841,48.74C328.37,48.74 326.528,48.233 325.331,47.163C324.266,46.212 323.864,44.874 324.079,43.164C324.079,43.164 341.265,43.164 341.265,43.164C341.92,43.164 342.438,42.971 342.829,42.613C343.204,42.268 343.468,41.759 343.589,41.071C344.315,36.956 343.754,33.818 341.979,31.644C340.203,29.467 337.219,28.34 332.998,28.34C328.803,28.34 325.374,29.458 322.704,31.671C320.034,33.885 318.311,37.116 317.56,41.377C317.07,44.158 317.304,46.476 318.233,48.335C319.172,50.215 320.627,51.606 322.603,52.503C324.529,53.378 326.779,53.82 329.354,53.82ZM51.818,53.82C54.663,53.82 57.227,53.156 59.511,51.833C59.516,51.83 59.52,51.827 59.525,51.824C60.046,51.5 60.294,51.14 60.351,50.815C60.405,50.508 60.355,50.225 60.203,49.967C60.206,49.972 59.234,47.699 59.234,47.699C59.23,47.691 59.227,47.684 59.223,47.676C58.97,47.159 58.619,46.964 58.274,46.964C57.989,46.964 57.708,47.051 57.437,47.239C56.803,47.625 56.231,47.903 55.722,48.068C55.222,48.23 54.634,48.308 53.957,48.308C52.938,48.308 52.243,48.101 51.919,47.565C51.566,46.981 51.547,46.03 51.778,44.719C51.778,44.719 53.567,34.572 53.567,34.572C53.567,34.572 58.812,34.572 58.812,34.572C59.618,34.572 60.167,34.389 60.478,34.107C60.785,33.829 61.035,33.328 61.167,32.575C61.167,32.575 61.396,31.279 61.396,31.279C61.535,30.491 61.442,29.947 61.227,29.636C61.001,29.309 60.48,29.06 59.607,29.06C59.607,29.06 54.539,29.06 54.539,29.06C54.539,29.06 55.502,23.599 55.502,23.599C55.628,22.886 55.526,22.356 55.274,22C55.01,21.626 54.505,21.38 53.713,21.38L52.129,21.38C51.564,21.38 51.162,21.473 50.916,21.614C50.676,21.751 50.385,22.041 50.068,22.51C49.393,23.413 48.878,24.17 48.527,24.773C48.153,25.416 47.901,26.103 47.772,26.833L47.38,29.06C47.38,29.06 45.063,29.06 45.063,29.06C44.252,29.06 43.699,29.255 43.382,29.559C43.075,29.853 42.83,30.361 42.699,31.105C42.699,31.105 42.471,32.401 42.471,32.401C42.33,33.201 42.434,33.742 42.655,34.037C42.883,34.339 43.404,34.572 44.268,34.572C44.268,34.572 46.408,34.572 46.408,34.572C46.408,34.572 44.615,44.737 44.615,44.737C44.118,47.559 44.489,49.763 45.669,51.361C46.861,52.974 48.9,53.82 51.818,53.82ZM570.41,53.82C572.437,53.82 574.262,53.622 575.885,53.23C577.516,52.836 579.077,52.228 580.57,51.406C580.575,51.403 580.58,51.4 580.585,51.397C581.068,51.109 581.304,50.767 581.363,50.431C581.404,50.198 581.386,49.941 581.295,49.662L580.507,47.596C580.352,47.048 580.014,46.82 579.58,46.82C579.401,46.82 579.132,46.889 578.787,47.068C576.64,48.183 574.343,48.74 571.897,48.74C569.426,48.74 567.584,48.233 566.387,47.163C565.322,46.212 564.92,44.874 565.135,43.164C565.135,43.164 582.321,43.164 582.321,43.164C582.976,43.164 583.494,42.971 583.885,42.613C584.26,42.268 584.524,41.759 584.645,41.071C585.371,36.956 584.81,33.818 583.035,31.644C581.259,29.467 578.275,28.34 574.054,28.34C569.859,28.34 566.43,29.458 563.76,31.671C561.09,33.885 559.367,37.116 558.616,41.377C558.126,44.158 558.36,46.476 559.289,48.335C560.228,50.215 561.683,51.606 563.659,52.503C565.585,53.378 567.835,53.82 570.41,53.82ZM543.434,53.82C545.465,53.82 547.27,53.613 548.849,53.204C550.435,52.793 551.962,52.16 553.429,51.304C553.434,51.301 553.438,51.299 553.442,51.296C553.963,50.972 554.211,50.612 554.268,50.287C554.322,49.981 554.272,49.7 554.123,49.443C554.125,49.447 553.161,47.128 553.161,47.128C553.161,47.127 553.161,47.126 553.16,47.125C552.917,46.55 552.553,46.34 552.208,46.34C551.991,46.34 551.682,46.427 551.297,46.644C551.294,46.646 551.291,46.647 551.289,46.649C550.289,47.236 549.283,47.685 548.271,47.994C547.265,48.301 546.117,48.452 544.828,48.452C542.352,48.452 540.567,47.885 539.497,46.677C538.433,45.475 538.156,43.666 538.579,41.263C538.992,38.923 539.963,37.073 541.509,35.72C543.046,34.374 544.952,33.708 547.22,33.708C548.502,33.708 549.583,33.849 550.463,34.139C551.337,34.427 552.193,34.859 553.031,35.433C553.406,35.714 553.72,35.82 553.952,35.82C554.201,35.82 554.572,35.645 554.959,35.147L556.654,32.889C556.922,32.553 557.064,32.251 557.109,31.999C557.177,31.611 557.04,31.228 556.604,30.895C555.489,29.991 554.23,29.338 552.826,28.935C551.449,28.541 549.726,28.34 547.654,28.34C544.856,28.34 542.318,28.877 540.039,29.947C537.748,31.023 535.871,32.521 534.408,34.441C532.945,36.359 531.99,38.575 531.547,41.089C530.825,45.184 531.555,48.324 533.668,50.522C535.761,52.701 539.01,53.82 543.434,53.82ZM73.514,53.82C77.805,53.82 81.318,52.679 84.06,50.418C86.808,48.152 88.532,45.07 89.22,41.167C89.917,37.214 89.251,34.096 87.278,31.802C85.311,29.515 82.17,28.34 77.83,28.34C73.539,28.34 70.033,29.482 67.307,31.743C64.576,34.009 62.86,37.09 62.172,40.993C61.475,44.945 62.133,48.062 64.089,50.356C66.04,52.644 69.173,53.82 73.514,53.82ZM209.69,53.82C211.835,53.82 213.708,53.528 215.311,52.95C216.592,52.489 217.76,51.815 218.815,50.927C218.815,50.927 218.838,51.702 218.838,51.702C218.849,52.186 219.001,52.527 219.229,52.745C219.451,52.958 219.81,53.1 220.329,53.1C220.329,53.1 222.969,53.1 222.969,53.1C223.625,53.1 224.1,52.95 224.41,52.704C224.729,52.451 224.97,52.022 225.082,51.391C225.082,51.391 228.535,31.807 228.535,31.807C228.567,31.624 228.495,31.438 228.349,31.325C225.793,29.344 222.423,28.34 218.23,28.34C215.24,28.34 212.519,28.917 210.066,30.067C207.6,31.223 205.569,32.866 203.972,34.996C202.378,37.122 201.335,39.569 200.847,42.337C200.207,45.967 200.718,48.776 202.315,50.776C203.922,52.789 206.374,53.82 209.69,53.82ZM102.65,53.82C104.681,53.82 106.486,53.613 108.065,53.204C109.651,52.793 111.178,52.16 112.645,51.304C112.65,51.301 112.654,51.299 112.658,51.296C113.179,50.972 113.427,50.612 113.484,50.287C113.538,49.981 113.488,49.7 113.339,49.443C113.341,49.447 112.377,47.128 112.377,47.128C112.377,47.127 112.377,47.126 112.376,47.125C112.133,46.55 111.769,46.34 111.424,46.34C111.207,46.34 110.898,46.427 110.513,46.644C110.51,46.646 110.507,46.647 110.505,46.649C109.505,47.236 108.499,47.685 107.487,47.994C106.481,48.301 105.333,48.452 104.044,48.452C101.568,48.452 99.783,47.885 98.713,46.677C97.649,45.475 97.372,43.666 97.795,41.263C98.208,38.923 99.179,37.073 100.725,35.72C102.262,34.374 104.168,33.708 106.436,33.708C107.718,33.708 108.799,33.849 109.679,34.139C110.553,34.427 111.409,34.859 112.247,35.433C112.622,35.714 112.936,35.82 113.168,35.82C113.417,35.82 113.788,35.645 114.175,35.147L115.87,32.889C116.138,32.553 116.28,32.251 116.325,31.999C116.393,31.611 116.256,31.228 115.82,30.895C114.705,29.991 113.446,29.338 112.042,28.935C110.665,28.541 108.942,28.34 106.87,28.34C104.072,28.34 101.534,28.877 99.255,29.947C96.964,31.023 95.087,32.521 93.624,34.441C92.161,36.359 91.206,38.575 90.763,41.089C90.041,45.184 90.771,48.324 92.884,50.522C94.977,52.701 98.226,53.82 102.65,53.82ZM267.098,53.82C269.243,53.82 271.116,53.528 272.719,52.95C274,52.489 275.168,51.815 276.223,50.927C276.223,50.927 276.246,51.702 276.246,51.702C276.257,52.186 276.409,52.527 276.637,52.745C276.859,52.958 277.218,53.1 277.737,53.1C277.737,53.1 280.377,53.1 280.377,53.1C281.033,53.1 281.508,52.95 281.818,52.704C282.137,52.451 282.378,52.022 282.49,51.391C282.49,51.391 285.943,31.807 285.943,31.807C285.975,31.624 285.903,31.438 285.757,31.325C283.201,29.344 279.831,28.34 275.638,28.34C272.648,28.34 269.927,28.917 267.474,30.067C265.008,31.223 262.977,32.866 261.38,34.996C259.786,37.122 258.743,39.569 258.255,42.337C257.615,45.967 258.126,48.776 259.723,50.776C261.33,52.789 263.782,53.82 267.098,53.82ZM482.042,53.82C484.187,53.82 486.06,53.528 487.663,52.95C488.944,52.489 490.112,51.815 491.167,50.927C491.167,50.927 491.19,51.702 491.19,51.702C491.201,52.186 491.353,52.527 491.581,52.745C491.803,52.958 492.162,53.1 492.681,53.1C492.681,53.1 495.321,53.1 495.321,53.1C495.977,53.1 496.452,52.95 496.762,52.704C497.081,52.451 497.322,52.022 497.434,51.391C497.434,51.391 500.887,31.807 500.887,31.807C500.919,31.624 500.847,31.438 500.701,31.325C498.145,29.344 494.775,28.34 490.582,28.34C487.592,28.34 484.871,28.917 482.418,30.067C479.952,31.223 477.921,32.866 476.324,34.996C474.73,37.122 473.687,39.569 473.199,42.337C472.559,45.967 473.07,48.776 474.667,50.776C476.274,52.789 478.726,53.82 482.042,53.82ZM26.282,53.82C30.207,53.82 33.373,52.991 35.789,51.358C38.25,49.695 39.734,47.417 40.244,44.527C40.586,42.585 40.468,40.994 39.921,39.751C39.369,38.498 38.468,37.449 37.209,36.608C36.016,35.811 34.317,34.94 32.109,33.997L30.985,33.513C29.277,32.819 28.049,32.268 27.301,31.858C26.637,31.494 26.156,31.06 25.869,30.542C25.587,30.032 25.544,29.349 25.695,28.495C25.949,27.051 26.584,25.99 27.625,25.326C28.713,24.632 30.21,24.3 32.111,24.3C35.026,24.3 37.359,24.914 39.101,26.172C39.477,26.455 39.779,26.556 39.969,26.556C40.076,26.556 40.199,26.53 40.335,26.459C40.485,26.378 40.682,26.214 40.908,25.946L42.879,23.457C43.1,23.224 43.23,22.965 43.279,22.687C43.348,22.295 43.192,21.847 42.681,21.406C42.679,21.404 42.677,21.402 42.675,21.401C41.592,20.494 40.243,19.818 38.623,19.381C37.045,18.956 35.126,18.74 32.867,18.74C29.145,18.74 25.997,19.563 23.421,21.193C20.793,22.856 19.209,25.216 18.67,28.273C18.332,30.194 18.539,31.821 19.263,33.158C19.98,34.482 20.988,35.553 22.288,36.368C23.53,37.147 25.132,37.959 27.093,38.803L28.124,39.237C29.766,39.93 30.946,40.48 31.662,40.89C32.297,41.253 32.758,41.68 33.033,42.184C33.302,42.677 33.342,43.338 33.197,44.161C32.943,45.599 32.274,46.649 31.167,47.296C29.998,47.98 28.377,48.308 26.309,48.308C24.757,48.308 23.258,48.099 21.811,47.68C20.374,47.264 19.145,46.719 18.124,46.041C17.79,45.809 17.497,45.716 17.262,45.716C17.013,45.716 16.655,45.876 16.276,46.326L14.259,48.813C14.041,49.042 13.904,49.315 13.848,49.633C13.787,49.982 13.951,50.432 14.52,50.881C14.52,50.881 14.521,50.882 14.522,50.883C15.723,51.815 17.414,52.547 19.602,53.063C21.744,53.567 23.97,53.82 26.282,53.82ZM231.849,53.1L234.345,53.1C235.17,53.1 235.773,52.895 236.17,52.541C236.566,52.188 236.841,51.665 236.966,50.959C236.966,50.959 239.209,38.239 239.209,38.239C239.439,36.932 240.211,35.873 241.504,35.045C242.847,34.186 244.317,33.756 245.916,33.756C247.331,33.756 248.32,33.998 248.854,34.579C249.38,35.149 249.462,36.125 249.221,37.489C249.221,37.489 246.877,50.785 246.877,50.785C246.743,51.544 246.874,52.106 247.187,52.486C247.497,52.862 248.053,53.1 248.889,53.1C248.889,53.1 251.433,53.1 251.433,53.1C252.224,53.1 252.811,52.897 253.21,52.541C253.606,52.188 253.881,51.665 254.006,50.959C254.006,50.959 256.418,37.279 256.418,37.279C256.944,34.298 256.448,32.072 255.014,30.581C253.592,29.102 251.512,28.34 248.758,28.34C245.057,28.34 241.946,29.31 239.42,31.236C239.42,31.236 239.502,30.583 239.502,30.583C239.566,30.076 239.438,29.705 239.191,29.451C238.96,29.214 238.594,29.06 238.071,29.06C238.071,29.06 235.335,29.06 235.335,29.06C234.647,29.06 234.185,29.235 233.925,29.493C233.677,29.738 233.474,30.156 233.366,30.769C233.366,30.769 229.837,50.785 229.837,50.785C229.703,51.544 229.834,52.106 230.147,52.486C230.457,52.862 231.013,53.1 231.849,53.1ZM457.353,53.1L459.801,53.1C460.371,53.1 460.815,52.972 461.139,52.748C461.432,52.546 461.759,52.194 462.106,51.68C462.108,51.677 462.11,51.674 462.112,51.672L475.372,31.178C475.543,30.924 475.647,30.669 475.692,30.415C475.761,30.025 475.674,29.709 475.467,29.458C475.265,29.212 474.956,29.06 474.519,29.06C474.519,29.06 470.535,29.06 470.535,29.06C469.998,29.06 469.581,29.179 469.277,29.386C468.993,29.578 468.713,29.879 468.447,30.301L459.988,44.263C459.988,44.263 456.491,30.447 456.491,30.447C456.366,29.933 456.168,29.591 455.944,29.398C455.713,29.198 455.32,29.06 454.743,29.06C454.743,29.06 450.759,29.06 450.759,29.06C450.372,29.06 450.053,29.177 449.797,29.395C449.537,29.616 449.376,29.898 449.315,30.241C449.268,30.511 449.286,30.78 449.372,31.049C449.372,31.049 455.405,51.541 455.405,51.541C455.406,51.545 455.407,51.55 455.409,51.554C455.588,52.11 455.815,52.487 456.054,52.705C456.317,52.945 456.743,53.1 457.353,53.1ZM364.205,33.701C364.164,33.932 363.956,34.201 363.877,34.296L363.846,34.332L363.363,34.222C363.363,34.222 363.479,34.236 363.479,34.236L363.256,34.183C362.612,33.862 361.837,33.708 360.932,33.708C359.415,33.708 358.09,34.128 356.959,34.976C355.845,35.811 355.164,36.948 354.911,38.383C354.911,38.383 352.694,50.959 352.694,50.959C352.569,51.665 352.294,52.188 351.898,52.541C351.501,52.895 350.898,53.1 350.073,53.1L347.577,53.1C346.741,53.1 346.185,52.862 345.875,52.486C345.562,52.106 345.431,51.544 345.565,50.785C345.565,50.785 349.094,30.769 349.094,30.769C349.202,30.156 349.405,29.738 349.653,29.493C349.913,29.235 350.375,29.06 351.063,29.06C351.063,29.06 353.799,29.06 353.799,29.06C354.335,29.06 354.69,29.216 354.894,29.435C355.101,29.655 355.23,30.023 355.184,30.563L355.143,31.015C357.309,29.23 359.784,28.34 362.566,28.34C364.112,28.34 365.237,28.63 365.952,29.157C365.954,29.159 365.955,29.16 365.957,29.161C366.253,29.385 366.398,29.639 366.437,29.89C366.473,30.118 366.433,30.388 366.28,30.691C366.28,30.691 364.91,33.567 364.91,33.567C364.661,34.089 364.301,34.318 363.886,34.331L363.846,34.332L363.861,34.332C364.13,34.324 364.346,34.103 364.346,33.832C364.346,33.753 364.328,33.678 364.295,33.612C364.266,33.645 364.236,33.675 364.205,33.701ZM504.201,53.1L506.697,53.1C507.522,53.1 508.125,52.895 508.522,52.541C508.918,52.188 509.193,51.665 509.318,50.959C509.318,50.959 511.561,38.239 511.561,38.239C511.791,36.932 512.563,35.873 513.856,35.045C515.199,34.186 516.669,33.756 518.268,33.756C519.683,33.756 520.672,33.998 521.206,34.579C521.732,35.149 521.814,36.125 521.573,37.489C521.573,37.489 519.229,50.785 519.229,50.785C519.095,51.544 519.226,52.106 519.539,52.486C519.849,52.862 520.405,53.1 521.241,53.1C521.241,53.1 523.785,53.1 523.785,53.1C524.576,53.1 525.163,52.897 525.562,52.541C525.958,52.188 526.233,51.665 526.358,50.959C526.358,50.959 528.77,37.279 528.77,37.279C529.296,34.298 528.8,32.072 527.366,30.581C525.944,29.102 523.864,28.34 521.11,28.34C517.409,28.34 514.298,29.31 511.772,31.236C511.772,31.236 511.854,30.583 511.854,30.583C511.918,30.076 511.79,29.705 511.543,29.451C511.312,29.214 510.946,29.06 510.423,29.06C510.423,29.06 507.687,29.06 507.687,29.06C506.999,29.06 506.537,29.235 506.277,29.493C506.029,29.738 505.826,30.156 505.718,30.769C505.718,30.769 502.189,50.785 502.189,50.785C502.055,51.544 502.186,52.106 502.499,52.486C502.809,52.862 503.365,53.1 504.201,53.1ZM164.745,53.1L166.857,53.1C167.682,53.1 168.285,52.895 168.682,52.541C169.078,52.188 169.353,51.665 169.478,50.959C169.478,50.959 172.738,32.47 172.738,32.47C172.738,32.47 177.134,48.602 177.134,48.602C177.297,49.224 177.536,49.663 177.819,49.936C178.12,50.226 178.632,50.412 179.379,50.412C180.09,50.412 180.623,50.251 180.988,49.974C181.316,49.726 181.678,49.321 182.063,48.752C182.066,48.747 182.069,48.742 182.073,48.737L192.142,32.629C192.142,32.629 188.941,50.785 188.941,50.785C188.807,51.544 188.938,52.106 189.251,52.486C189.561,52.862 190.117,53.1 190.953,53.1C190.953,53.1 193.065,53.1 193.065,53.1C193.856,53.1 194.443,52.897 194.842,52.541C195.238,52.188 195.513,51.665 195.638,50.959C195.638,50.959 200.775,21.823 200.775,21.823C200.914,21.035 200.795,20.461 200.508,20.087C200.218,19.71 199.653,19.46 198.772,19.46C198.772,19.46 196.18,19.46 196.18,19.46C195.583,19.46 195.114,19.544 194.771,19.693C194.395,19.857 194.05,20.172 193.759,20.661C193.759,20.661 180.744,41.971 180.744,41.971C180.744,41.971 175.279,20.797 175.279,20.797C175.145,20.244 174.871,19.892 174.51,19.707C174.211,19.553 173.756,19.46 173.14,19.46C173.14,19.46 170.548,19.46 170.548,19.46C169.722,19.46 169.12,19.665 168.723,20.019C168.329,20.37 168.049,20.908 167.918,21.649C167.918,21.649 162.781,50.785 162.781,50.785C162.648,51.538 162.767,52.096 163.056,52.473C163.349,52.853 163.898,53.1 164.745,53.1ZM125.833,42.046C125.935,42.286 126.081,42.541 126.275,42.81C126.275,42.81 133.037,52.359 133.037,52.359C133.256,52.68 133.486,52.871 133.7,52.963C133.888,53.044 134.203,53.1 134.649,53.1L139.257,53.1C139.617,53.1 139.918,52.98 140.165,52.749C140.402,52.526 140.544,52.264 140.596,51.967C140.661,51.601 140.573,51.26 140.318,50.946C140.32,50.948 132.597,40.674 132.597,40.674C132.597,40.674 143.505,31.283 143.505,31.283C143.825,31.01 144.013,30.685 144.077,30.319C144.138,29.976 144.071,29.694 143.911,29.466C143.741,29.221 143.459,29.06 143.031,29.06C143.031,29.06 138.567,29.06 138.567,29.06C138.062,29.06 137.695,29.122 137.464,29.219C137.23,29.318 136.967,29.498 136.682,29.773C136.687,29.768 127.028,38.305 127.028,38.305C127.025,38.308 127.022,38.311 127.019,38.314C126.758,38.556 126.542,38.786 126.37,39.004L129.399,21.823C129.539,21.028 129.408,20.45 129.098,20.074C128.788,19.698 128.232,19.46 127.396,19.46C127.396,19.46 124.852,19.46 124.852,19.46C124.061,19.46 123.474,19.663 123.075,20.019C122.681,20.37 122.401,20.908 122.27,21.649C122.27,21.649 117.133,50.785 117.133,50.785C117,51.538 117.119,52.096 117.408,52.473C117.701,52.853 118.25,53.1 119.097,53.1L121.641,53.1C122.466,53.1 123.069,52.895 123.466,52.541C123.862,52.188 124.137,51.665 124.262,50.959L125.833,42.046ZM384.297,53.1L388.473,53.1C389.003,53.1 389.389,53.009 389.639,52.866C389.885,52.725 390.161,52.445 390.44,52.003C390.443,51.997 390.447,51.991 390.45,51.986L394.179,45.516C394.179,45.516 406.74,45.516 406.74,45.516C406.74,45.516 408.202,51.848 408.202,51.848C408.204,51.856 408.205,51.863 408.207,51.87C408.346,52.369 408.558,52.68 408.779,52.838C408.99,52.989 409.368,53.1 409.929,53.1C409.929,53.1 414.105,53.1 414.105,53.1C414.507,53.1 414.819,52.995 415.052,52.817C415.302,52.627 415.473,52.348 415.54,51.967C415.585,51.711 415.574,51.433 415.499,51.134C415.499,51.137 408.127,21.093 408.127,21.093C407.991,20.491 407.788,20.091 407.566,19.869C407.32,19.625 406.899,19.46 406.276,19.46C406.276,19.46 403.636,19.46 403.636,19.46C403.101,19.46 402.673,19.586 402.345,19.812C402.047,20.018 401.725,20.393 401.402,20.954C401.402,20.954 383.433,50.999 383.433,50.999C383.261,51.282 383.158,51.549 383.115,51.793C383.038,52.23 383.146,52.547 383.355,52.766C383.544,52.963 383.849,53.1 384.297,53.1ZM485.116,48.452C483.1,48.452 481.676,47.999 480.872,47.006C480.063,46.005 479.892,44.438 480.265,42.319C480.74,39.627 481.837,37.513 483.575,35.983C485.301,34.465 487.365,33.708 489.764,33.708C490.714,33.708 491.506,33.775 492.14,33.913C492.643,34.022 493.129,34.196 493.6,34.435C493.6,34.436 492.012,43.441 492.012,43.441C491.748,44.939 490.936,46.139 489.587,47.049C488.202,47.983 486.712,48.452 485.116,48.452ZM431.884,48.452C429.476,48.452 427.764,47.928 426.774,46.798C425.784,45.669 425.569,43.819 426.019,41.263C426.434,38.914 427.299,37.063 428.634,35.721C429.944,34.403 431.697,33.756 433.884,33.756C435.47,33.756 436.704,34.103 437.573,34.838C438.393,35.53 438.649,36.564 438.409,37.921C438.409,37.921 436.725,47.473 436.725,47.473C435.437,48.131 433.823,48.452 431.884,48.452ZM212.764,48.452C210.748,48.452 209.324,47.999 208.52,47.006C207.711,46.005 207.54,44.438 207.913,42.319C208.388,39.627 209.485,37.513 211.223,35.983C212.949,34.465 215.013,33.708 217.412,33.708C218.362,33.708 219.154,33.775 219.788,33.913C220.291,34.022 220.777,34.196 221.248,34.435C221.248,34.436 219.66,43.441 219.66,43.441C219.396,44.939 218.584,46.139 217.235,47.049C215.85,47.983 214.36,48.452 212.764,48.452ZM270.172,48.452C268.156,48.452 266.732,47.999 265.928,47.006C265.119,46.005 264.948,44.438 265.321,42.319C265.796,39.627 266.893,37.513 268.631,35.983C270.357,34.465 272.421,33.708 274.82,33.708C275.77,33.708 276.562,33.775 277.196,33.913C277.699,34.022 278.185,34.196 278.656,34.435C278.656,34.436 277.068,43.441 277.068,43.441C276.804,44.939 275.992,46.139 274.643,47.049C273.258,47.983 271.768,48.452 270.172,48.452ZM74.309,48.308C72.264,48.308 70.787,47.735 69.905,46.522C69.004,45.283 68.794,43.495 69.204,41.167C69.622,38.798 70.495,36.992 71.851,35.762C73.191,34.546 74.916,33.948 77.018,33.948C79.094,33.948 80.583,34.504 81.456,35.689C82.347,36.896 82.55,38.668 82.14,40.993C81.716,43.395 80.845,45.227 79.5,46.473C78.173,47.704 76.44,48.308 74.309,48.308ZM300.093,47.54C298.015,47.54 296.543,47.048 295.707,45.98C294.862,44.9 294.675,43.26 295.061,41.071C295.492,38.628 296.4,36.788 297.814,35.566C299.223,34.349 301.127,33.756 303.516,33.756C304.509,33.756 305.441,33.833 306.314,33.988C306.987,34.108 307.559,34.264 308.028,34.459C308.028,34.459 306.588,42.625 306.588,42.625C306.318,44.154 305.596,45.354 304.415,46.221C303.211,47.104 301.769,47.54 300.093,47.54ZM405.762,40.052L397.082,40.052C397.082,40.052 403.314,29.324 403.314,29.324L405.762,40.052ZM578.487,38.612L565.948,38.612C566.327,37.089 567.096,35.847 568.261,34.89C569.581,33.806 571.3,33.276 573.408,33.276C575.426,33.276 576.863,33.747 577.691,34.771C578.455,35.714 578.704,36.997 578.487,38.612L578.487,38.612ZM337.431,38.612L324.892,38.612C325.271,37.089 326.04,35.847 327.205,34.89C328.525,33.806 330.244,33.276 332.352,33.276C334.37,33.276 335.807,33.747 336.635,34.771C337.399,35.714 337.648,36.997 337.431,38.612L337.431,38.612Z" style="fill:white;fill-rule:nonzero;"/>
    </g>
</svg>
