<?xml version="1.0" encoding="UTF-8" standalone="no"?>
<!DOCTYPE svg PUBLIC "-//W3C//DTD SVG 1.1//EN" "http://www.w3.org/Graphics/SVG/1.1/DTD/svg11.dtd">
<svg width="100%" height="100%" viewBox="0 0 350 140" version="1.1" xmlns="http://www.w3.org/2000/svg" xmlns:xlink="http://www.w3.org/1999/xlink" xml:space="preserve" xmlns:serif="http://www.serif.com/" style="fill-rule:evenodd;clip-rule:evenodd;stroke-linejoin:round;stroke-miterlimit:2;">
    <path d="M308.215,113.01C308.228,113.045 308.242,113.08 308.257,113.115C308.95,114.8 309.78,116.745 310.747,118.95C311.882,121.541 312.978,123.444 313.968,124.696C315.178,126.226 316.67,127.439 318.449,128.329C320.19,129.199 322.269,129.684 324.707,129.684C328.786,129.684 332.271,128.241 335.161,125.351C338.115,122.396 339.494,119.102 339.494,115.557C339.494,112.841 338.377,108.457 335.886,102.476C335.886,102.476 307.858,33.247 307.858,33.247C306.53,29.756 305.435,26.964 304.573,24.871C303.604,22.518 302.413,20.318 301.002,18.27C299.405,15.953 297.315,14.05 294.717,12.578C292.137,11.117 288.937,10.316 285.083,10.316C281.284,10.316 278.107,11.114 275.523,12.578C272.913,14.056 270.812,15.996 269.209,18.386C267.819,20.457 266.499,23.052 265.273,26.184C264.175,28.99 263.235,31.394 262.454,33.396C262.454,33.396 234.996,103.102 234.996,103.102C233.823,106.011 232.984,108.285 232.473,109.919C231.851,111.909 231.551,113.838 231.551,115.703C231.551,119.352 232.975,122.653 235.992,125.53C238.92,128.322 242.305,129.684 246.118,129.684C250.934,129.684 254.288,128.014 256.404,125.205C257.961,123.138 259.906,119.182 262.107,113.277L266.225,102.218C266.225,102.218 304.11,102.218 304.11,102.218C304.11,102.218 308.215,113.01 308.215,113.01ZM150.671,108.517C150.674,108.528 150.677,108.54 150.68,108.552C151.269,110.811 151.846,112.983 152.411,115.07C153.07,117.504 153.977,119.721 155.123,121.725C156.437,124.026 158.268,125.924 160.633,127.403C162.998,128.881 165.872,129.684 169.287,129.684C173.862,129.684 177.394,128.376 179.98,126.055C182.465,123.825 184.135,121.332 185.059,118.623C185.791,116.479 186.741,113.112 187.902,108.521L196.908,72.729C196.908,72.728 196.908,113.213 196.908,113.213C196.908,118.586 198.337,122.55 200.768,125.237C203.433,128.183 206.823,129.684 210.962,129.684C215.351,129.684 218.818,128.142 221.431,125.216C223.825,122.534 225.236,118.577 225.236,113.213C225.236,113.213 225.236,28.252 225.236,28.252C225.236,21.765 223.105,17.569 219.726,15.306C216.705,13.281 212.656,12.147 207.52,12.147C207.52,12.147 200.781,12.147 200.781,12.147C196.012,12.147 192.563,12.681 190.408,13.543C187.582,14.674 185.464,16.682 184.107,19.621C183.163,21.667 182.065,24.991 180.859,29.606C180.859,29.606 169.287,73.231 169.287,73.231C169.287,73.231 157.715,29.606 157.715,29.606C156.509,24.991 155.411,21.667 154.467,19.621C153.11,16.682 150.992,14.674 148.166,13.543C146.011,12.681 142.562,12.147 137.793,12.147C137.793,12.147 131.055,12.147 131.055,12.147C125.918,12.147 121.869,13.281 118.848,15.306C115.469,17.569 113.338,21.765 113.338,28.252L113.338,113.213C113.338,118.655 114.782,122.635 117.215,125.292C119.87,128.191 123.274,129.684 127.466,129.684C131.796,129.684 135.242,128.15 137.861,125.216C140.256,122.534 141.667,118.577 141.667,113.213L141.667,72.728C141.667,72.729 150.671,108.517 150.671,108.517ZM104.167,91.46C104.167,85.281 103.008,80.074 100.809,75.815C98.571,71.481 95.455,67.896 91.461,65.063C87.73,62.418 83.214,60.153 77.896,58.301C72.873,56.552 67.265,54.951 61.07,53.5C56.34,52.306 52.946,51.399 50.888,50.777C49.057,50.223 47.247,49.454 45.458,48.474C43.982,47.666 42.8,46.725 41.956,45.601C41.313,44.743 41.032,43.713 41.032,42.534C41.032,40.348 42.284,38.578 44.455,37.023C47.275,35.002 51.015,34.103 55.615,34.103C60.418,34.103 63.968,34.747 66.137,36.548C68.461,38.478 70.417,41.192 72.077,44.636C72.102,44.688 72.128,44.74 72.155,44.791C73.934,48.119 75.632,50.482 77.152,51.945C79.12,53.838 81.931,54.977 85.718,54.977C89.698,54.977 93.025,53.475 95.69,50.455C98.239,47.565 99.479,44.306 99.479,40.703C99.479,37.276 98.627,33.752 96.854,30.148C95.165,26.714 92.522,23.41 88.863,20.286C85.324,17.264 80.887,14.815 75.524,12.991C70.336,11.227 64.191,10.316 57.08,10.316C48.228,10.316 40.534,11.673 33.986,14.318C27.061,17.116 21.804,21.163 18.148,26.37C14.434,31.66 12.557,37.703 12.557,44.512C12.557,51.701 14.399,57.694 17.938,62.535C21.39,67.257 26.04,71.008 31.923,73.742C37.341,76.26 44.064,78.474 52.102,80.356C52.109,80.357 52.115,80.359 52.122,80.361C57.711,81.639 62.176,82.842 65.515,83.979C68.281,84.92 70.556,86.253 72.302,88.038C73.738,89.506 74.373,91.448 74.373,93.804C74.373,96.981 72.857,99.582 70.007,101.706C66.625,104.227 62.199,105.384 56.787,105.384C52.896,105.384 49.739,104.852 47.348,103.616C45.128,102.468 43.383,101.039 42.16,99.271C40.728,97.201 39.409,94.618 38.175,91.536C36.78,87.964 35.033,85.309 33.063,83.491C30.702,81.312 27.828,80.189 24.414,80.189C20.366,80.189 17.052,81.581 14.435,84.268C11.818,86.955 10.506,90.182 10.506,93.95C10.506,99.206 12.2,104.641 15.732,110.208C19.143,115.584 23.578,119.881 29.035,123.1C29.043,123.105 29.05,123.109 29.058,123.114C36.497,127.44 45.923,129.684 57.373,129.684C66.879,129.684 75.09,128.067 82.022,124.916C89.26,121.626 94.726,117.039 98.482,111.226C102.26,105.38 104.167,98.795 104.167,91.46ZM253.924,91.954L256.028,91.756C256.115,92.006 256.237,92.185 256.393,92.293C256.549,92.4 256.757,92.454 257.018,92.454C257.303,92.454 257.523,92.393 257.679,92.272C257.801,92.182 257.862,92.069 257.862,91.933C257.862,91.781 257.782,91.663 257.622,91.579C257.507,91.52 257.204,91.447 256.711,91.36C255.974,91.232 255.463,91.113 255.177,91.004C254.89,90.894 254.649,90.709 254.453,90.449C254.257,90.189 254.159,89.892 254.159,89.558C254.159,89.194 254.264,88.88 254.476,88.616C254.688,88.352 254.98,88.155 255.351,88.025C255.723,87.894 256.221,87.829 256.846,87.829C257.506,87.829 257.993,87.88 258.307,87.98C258.621,88.081 258.883,88.237 259.093,88.449C259.303,88.661 259.478,88.947 259.617,89.308L257.606,89.506C257.554,89.329 257.468,89.199 257.346,89.116C257.179,89.005 256.978,88.949 256.742,88.949C256.502,88.949 256.328,88.992 256.218,89.077C256.109,89.162 256.054,89.265 256.054,89.386C256.054,89.522 256.124,89.624 256.263,89.694C256.402,89.763 256.704,89.826 257.169,89.881C257.874,89.961 258.398,90.072 258.742,90.215C259.086,90.357 259.349,90.56 259.531,90.824C259.713,91.088 259.804,91.378 259.804,91.694C259.804,92.013 259.708,92.324 259.515,92.626C259.323,92.928 259.019,93.169 258.604,93.347C258.189,93.526 257.624,93.616 256.909,93.616C255.898,93.616 255.178,93.472 254.75,93.183C254.321,92.895 254.046,92.485 253.924,91.954ZM304.289,91.954L306.393,91.756C306.48,92.006 306.601,92.185 306.757,92.293C306.914,92.4 307.122,92.454 307.382,92.454C307.667,92.454 307.888,92.393 308.044,92.272C308.165,92.182 308.226,92.069 308.226,91.933C308.226,91.781 308.146,91.663 307.987,91.579C307.872,91.52 307.568,91.447 307.075,91.36C306.339,91.232 305.828,91.113 305.541,91.004C305.255,90.894 305.014,90.709 304.817,90.449C304.621,90.189 304.523,89.892 304.523,89.558C304.523,89.194 304.629,88.88 304.841,88.616C305.053,88.352 305.344,88.155 305.716,88.025C306.087,87.894 306.586,87.829 307.211,87.829C307.87,87.829 308.357,87.88 308.672,87.98C308.986,88.081 309.248,88.237 309.458,88.449C309.668,88.661 309.843,88.947 309.981,89.308L307.971,89.506C307.919,89.329 307.832,89.199 307.711,89.116C307.544,89.005 307.343,88.949 307.106,88.949C306.867,88.949 306.692,88.992 306.583,89.077C306.474,89.162 306.419,89.265 306.419,89.386C306.419,89.522 306.488,89.624 306.627,89.694C306.766,89.763 307.068,89.826 307.534,89.881C308.238,89.961 308.763,90.072 309.106,90.215C309.45,90.357 309.713,90.56 309.895,90.824C310.078,91.088 310.169,91.378 310.169,91.694C310.169,92.013 310.073,92.324 309.88,92.626C309.687,92.928 309.383,93.169 308.968,93.347C308.553,93.526 307.988,93.616 307.273,93.616C306.263,93.616 305.543,93.472 305.114,93.183C304.685,92.895 304.41,92.485 304.289,91.954ZM298.122,91.324L300.138,91.553C300.027,91.973 299.844,92.337 299.591,92.644C299.337,92.952 299.014,93.19 298.619,93.36C298.225,93.531 297.724,93.616 297.117,93.616C296.53,93.616 296.041,93.561 295.651,93.452C295.26,93.342 294.924,93.165 294.643,92.92C294.362,92.676 294.141,92.388 293.981,92.058C293.822,91.729 293.742,91.291 293.742,90.746C293.742,90.176 293.839,89.702 294.034,89.324C294.176,89.046 294.37,88.797 294.617,88.577C294.863,88.356 295.117,88.192 295.377,88.084C295.79,87.914 296.32,87.829 296.966,87.829C297.869,87.829 298.557,87.991 299.031,88.314C299.505,88.636 299.837,89.109 300.028,89.73L298.034,89.996C297.971,89.76 297.857,89.582 297.692,89.462C297.527,89.342 297.306,89.282 297.028,89.282C296.678,89.282 296.394,89.408 296.177,89.66C295.96,89.912 295.851,90.293 295.851,90.803C295.851,91.258 295.959,91.604 296.174,91.84C296.389,92.076 296.664,92.194 296.997,92.194C297.275,92.194 297.508,92.123 297.698,91.98C297.887,91.838 298.028,91.619 298.122,91.324ZM284.705,85.85L284.705,87.954L285.872,87.954L285.872,89.501L284.705,89.501L284.705,91.465C284.705,91.701 284.728,91.857 284.773,91.933C284.843,92.051 284.964,92.11 285.138,92.11C285.294,92.11 285.513,92.065 285.794,91.975L285.95,93.439C285.426,93.553 284.936,93.61 284.481,93.61C283.954,93.61 283.565,93.543 283.315,93.407C283.065,93.272 282.88,93.066 282.76,92.79C282.64,92.514 282.58,92.067 282.58,91.449L282.58,89.501L281.799,89.501L281.799,87.954L282.58,87.954L282.58,86.939L284.705,85.85ZM273.414,89.746L271.388,89.532C271.464,89.178 271.574,88.9 271.718,88.696C271.863,88.493 272.07,88.317 272.341,88.168C272.535,88.06 272.803,87.977 273.143,87.918C273.483,87.859 273.851,87.829 274.247,87.829C274.882,87.829 275.393,87.865 275.778,87.936C276.164,88.007 276.485,88.156 276.742,88.381C276.922,88.538 277.065,88.759 277.169,89.045C277.273,89.332 277.325,89.605 277.325,89.866L277.325,92.308C277.325,92.569 277.342,92.773 277.375,92.92C277.408,93.068 277.48,93.256 277.591,93.485L275.601,93.485C275.521,93.343 275.469,93.235 275.445,93.16C275.421,93.085 275.396,92.968 275.372,92.808C275.094,93.076 274.818,93.267 274.544,93.381C274.169,93.534 273.733,93.61 273.237,93.61C272.577,93.61 272.076,93.458 271.734,93.152C271.392,92.847 271.221,92.47 271.221,92.022C271.221,91.602 271.344,91.256 271.591,90.985C271.837,90.715 272.292,90.513 272.955,90.381C273.751,90.222 274.266,90.11 274.502,90.045C274.738,89.981 274.988,89.897 275.252,89.793C275.252,89.532 275.198,89.35 275.091,89.246C274.983,89.142 274.794,89.09 274.523,89.09C274.176,89.09 273.915,89.145 273.742,89.256C273.606,89.343 273.497,89.506 273.414,89.746ZM293.023,91.246L288.773,91.246C288.811,91.586 288.903,91.84 289.049,92.006C289.254,92.246 289.521,92.366 289.851,92.366C290.06,92.366 290.257,92.314 290.445,92.209C290.56,92.143 290.683,92.027 290.815,91.86L292.903,92.053C292.584,92.609 292.198,93.007 291.747,93.248C291.296,93.49 290.648,93.61 289.804,93.61C289.072,93.61 288.495,93.507 288.075,93.301C287.655,93.094 287.307,92.766 287.031,92.316C286.755,91.867 286.617,91.338 286.617,90.73C286.617,89.866 286.894,89.166 287.448,88.631C288.001,88.097 288.766,87.829 289.742,87.829C290.534,87.829 291.159,87.949 291.617,88.189C292.075,88.428 292.424,88.775 292.664,89.23C292.903,89.685 293.023,90.277 293.023,91.006L293.023,91.246ZM311.179,85.85L313.299,85.85L313.299,88.663C313.587,88.364 313.874,88.15 314.159,88.022C314.443,87.893 314.78,87.829 315.169,87.829C315.745,87.829 316.199,88.005 316.531,88.355C316.863,88.706 317.028,89.244 317.028,89.97L317.028,93.485L314.898,93.485L314.898,90.444C314.898,90.097 314.834,89.851 314.705,89.707C314.577,89.563 314.396,89.491 314.164,89.491C313.907,89.491 313.698,89.588 313.539,89.782C313.379,89.977 313.299,90.326 313.299,90.829L313.299,93.485L311.179,93.485L311.179,85.85ZM260.83,87.954L262.81,87.954L262.81,88.761C263.094,88.425 263.382,88.185 263.672,88.043C263.961,87.9 264.311,87.829 264.721,87.829C265.162,87.829 265.511,87.907 265.768,88.064C266.025,88.22 266.235,88.452 266.398,88.761C266.731,88.4 267.035,88.155 267.31,88.025C267.584,87.894 267.922,87.829 268.325,87.829C268.919,87.829 269.382,88.005 269.716,88.358C270.049,88.71 270.216,89.261 270.216,90.011L270.216,93.485L268.091,93.485L268.091,90.334C268.091,90.084 268.042,89.899 267.945,89.777C267.803,89.586 267.626,89.491 267.414,89.491C267.164,89.491 266.962,89.581 266.81,89.761C266.657,89.942 266.58,90.232 266.58,90.631L266.58,93.485L264.455,93.485L264.455,90.439C264.455,90.196 264.441,90.031 264.414,89.944C264.369,89.805 264.29,89.693 264.179,89.608C264.068,89.523 263.938,89.48 263.789,89.48C263.546,89.48 263.346,89.572 263.19,89.756C263.034,89.94 262.955,90.242 262.955,90.663L262.955,93.485L260.83,93.485L260.83,87.954ZM278.601,91.36L280.867,91.36L280.867,93.485L278.601,93.485L278.601,91.36ZM301.117,91.36L303.382,91.36L303.382,93.485L301.117,93.485L301.117,91.36ZM275.252,90.86C274.961,90.965 274.657,91.057 274.341,91.136C273.91,91.251 273.638,91.364 273.523,91.475C273.405,91.59 273.346,91.72 273.346,91.866C273.346,92.032 273.404,92.169 273.52,92.275C273.637,92.38 273.808,92.433 274.034,92.433C274.27,92.433 274.489,92.376 274.692,92.261C274.895,92.147 275.04,92.007 275.125,91.842C275.21,91.677 275.252,91.463 275.252,91.199L275.252,90.86ZM290.867,90.23C290.825,89.821 290.715,89.527 290.536,89.35C290.357,89.173 290.122,89.084 289.83,89.084C289.494,89.084 289.224,89.218 289.023,89.485C288.895,89.652 288.813,89.9 288.778,90.23L290.867,90.23ZM274.964,77.552L284.972,49.649C284.972,49.649 295.165,77.552 295.165,77.552L274.964,77.552Z" style="fill-rule:nonzero;"/>
</svg>
